<svg xmlns="http://www.w3.org/2000/svg" viewBox="0 0 410 404"><defs><linearGradient id="a" x1="4.8%" x2="97.8%" y1="2.3%" y2="97.6%"><stop stop-color="#41D1FF" offset="0"/><stop stop-color="#BD34FE" offset="1"/></linearGradient><linearGradient id="b" x1="0%" x2="100%" y1="0%" y2="100%"><stop stop-color="#FFEA83" offset="0"/><stop stop-color="#FFDD35" offset="0.083"/><stop stop-color="#FFA800" offset="1"/></linearGradient></defs><path fill="url(#a)" d="M399.6 59.6L215.6 388c-3.2 5.7-11.5 5.7-14.7 0L10.4 59.6c-3.3-5.8 1-13 7.4-13h162.3c3 0 5.8 1.6 7.3 4.2l44.3 75.7a8.4 8.4 0 0014.4-.1l43.1-75.5a8.4 8.4 0 017.3-4.3h96.7c6.5 0 10.7 7.2 7.4 13z"/><path fill="url(#b)" d="M283.1 94.2L205 238.2c-2.9 5.4-10.7 5.4-13.6 0L112.3 94.2c-2.8-5.2 1-11.5 6.8-11.5h54.5c2.6 0 5 1.4 6.3 3.6l20.5 34.2a7.2 7.2 0 0012.4-.1l19.6-34a7.2 7.2 0 016.3-3.7h31.8c5.8 0 9.6 6.3 6.8 11.5z"/></svg>
